HIERARCHY
ROOT Hips
{
	OFFSET 0.000000 83.214638 0.000000
	CHANNELS 6 Xposition Yposition Zposition Xrotation Yrotation Zrotation
	JOINT Pelvis
	{
		OFFSET 0.000000 0.000000 0.000000
		CHANNELS 3 Xrotation Yrotation Zrotation
		JOINT LeftUpLeg
		{
			OFFSET 8.479700 -4.795502 -0.379100
			CHANNELS 3 Xrotation Yrotation Zrotation
			JOINT LeftLeg
			{
				OFFSET 0.024144 -32.555107 0.112900
				CHANNELS 3 Xrotation Yrotation Zrotation
				JOINT LeftFoot
				{
					OFFSET -0.024144 -32.638630 -3.012600
					CHANNELS 3 Xrotation Yrotation Zrotation
					JOINT LeftToeBase
					{
						OFFSET 0.970200 -13.225400 11.864200
						CHANNELS 3 Xrotation Yrotation Zrotation
						End Site
						{
							OFFSET 0.000000 12.319262 0.000000
						}
					}
					JOINT LFootTongue
					{
						OFFSET 1.142400 -1.059800 6.665200
						CHANNELS 3 Xrotation Yrotation Zrotation
						End Site
						{
							OFFSET 0.000000 12.319262 0.000000
						}
					}
				}
				JOINT LeftPantLeg
				{
					OFFSET 0.918482 -16.533964 -2.284700
					CHANNELS 3 Xrotation Yrotation Zrotation
					End Site
					{
						OFFSET 0.350399 24.744368 0.000000
					}
				}
			}
		}
		JOINT RightUpLeg
		{
			OFFSET -8.479700 -4.795502 -0.379100
			CHANNELS 3 Xrotation Yrotation Zrotation
			JOINT RightLeg
			{
				OFFSET -0.023144 -32.555092 0.112900
				CHANNELS 3 Xrotation Yrotation Zrotation
				JOINT RightFoot
				{
					OFFSET 0.023144 -32.638641 -3.012700
					CHANNELS 3 Xrotation Yrotation Zrotation
					JOINT RightToeBase
					{
						OFFSET -0.970200 -13.225400 11.864200
						CHANNELS 3 Xrotation Yrotation Zrotation
						End Site
						{
							OFFSET 0.000000 12.319244 0.000000
						}
					}
					JOINT RFootTongue
					{
						OFFSET -1.142200 -1.059800 6.665200
						CHANNELS 3 Xrotation Yrotation Zrotation
						End Site
						{
							OFFSET 0.000000 12.319243 0.000000
						}
					}
				}
				JOINT RightPantLeg
				{
					OFFSET -0.919482 -16.533978 -2.284800
					CHANNELS 3 Xrotation Yrotation Zrotation
					End Site
					{
						OFFSET -0.350400 24.744419 0.000000
					}
				}
			}
		}
	}
	JOINT Spine
	{
		OFFSET 0.000000 7.722000 1.166200
		CHANNELS 3 Xrotation Yrotation Zrotation
		JOINT Spine1
		{
			OFFSET 0.000000 12.024101 0.248800
			CHANNELS 3 Xrotation Yrotation Zrotation
			JOINT Spine2
			{
				OFFSET 0.000000 11.502998 -0.491200
				CHANNELS 3 Xrotation Yrotation Zrotation
				JOINT Neck
				{
					OFFSET 0.000000 18.430702 -3.123100
					CHANNELS 3 Xrotation Yrotation Zrotation
					JOINT Head
					{
						OFFSET 0.000000 9.051102 1.034000
						CHANNELS 3 Xrotation Yrotation Zrotation
						JOINT HairB
						{
							OFFSET 0.208400 24.786102 24.822300
							CHANNELS 3 Xrotation Yrotation Zrotation
							End Site
							{
								OFFSET 0.000000 32.263779 0.000000
							}
						}
						JOINT HairA
						{
							OFFSET -7.081100 24.428299 23.196600
							CHANNELS 3 Xrotation Yrotation Zrotation
							End Site
							{
								OFFSET 0.000000 32.263779 0.000000
							}
						}
						JOINT Hat
						{
							OFFSET 16.728800 15.048294 -15.439601
							CHANNELS 3 Xrotation Yrotation Zrotation
							End Site
							{
								OFFSET 0.000000 32.263779 0.000000
							}
						}
					}
				}
				JOINT LeftShoulder
				{
					OFFSET 6.197800 13.665199 -4.064700
					CHANNELS 3 Xrotation Yrotation Zrotation
					JOINT LeftArm
					{
						OFFSET 7.778100 -0.187103 -1.709300
						CHANNELS 3 Xrotation Yrotation Zrotation
						JOINT LeftForeArm
						{
							OFFSET 22.049376 0.000000 0.000000
							CHANNELS 3 Xrotation Yrotation Zrotation
							JOINT LeftHand
							{
								OFFSET 23.009392 0.000000 0.000000
								CHANNELS 3 Xrotation Yrotation Zrotation
								JOINT LeftHandThumb1
								{
									OFFSET 3.507191 -2.063065 3.133727
									CHANNELS 3 Xrotation Yrotation Zrotation
									JOINT LeftHandThumb2
									{
										OFFSET 3.101337 -1.790558 1.790558
										CHANNELS 3 Xrotation Yrotation Zrotation
										JOINT LeftHandThumb3
										{
											OFFSET 3.058640 -1.765907 1.765906
											CHANNELS 3 Xrotation Yrotation Zrotation
											End Site
											{
												OFFSET -0.415260 3.926476 -0.049563
											}
										}
									}
								}
								JOINT LeftHandIndex1
								{
									OFFSET 11.334419 -0.901459 3.706815
									CHANNELS 3 Xrotation Yrotation Zrotation
									JOINT LeftHandIndex2
									{
										OFFSET 3.283112 0.000000 0.000000
										CHANNELS 3 Xrotation Yrotation Zrotation
										JOINT LeftHandIndex3
										{
											OFFSET 3.323853 0.000000 0.000000
											CHANNELS 3 Xrotation Yrotation Zrotation
											End Site
											{
												OFFSET -1.135597 3.097809 0.402452
											}
										}
									}
								}
								JOINT LeftHandMiddle1
								{
									OFFSET 11.335861 0.000000 0.000000
									CHANNELS 3 Xrotation Yrotation Zrotation
									JOINT LeftHandMiddle2
									{
										OFFSET 3.410492 0.000000 0.000000
										CHANNELS 3 Xrotation Yrotation Zrotation
										JOINT LeftHandMiddle3
										{
											OFFSET 3.312172 0.000000 0.000000
											CHANNELS 3 Xrotation Yrotation Zrotation
											End Site
											{
												OFFSET -1.150200 3.080154 0.400270
											}
										}
									}
								}
								JOINT LeftHandRing1
								{
									OFFSET 11.514786 -0.013176 -3.003090
									CHANNELS 3 Xrotation Yrotation Zrotation
									JOINT LeftHandRing2
									{
										OFFSET 3.053307 0.000000 0.000000
										CHANNELS 3 Xrotation Yrotation Zrotation
										JOINT LeftHandRing3
										{
											OFFSET 3.295807 0.000000 0.000000
											CHANNELS 3 Xrotation Yrotation Zrotation
											End Site
											{
												OFFSET -1.281006 3.013344 0.375733
											}
										}
									}
								}
								JOINT LeftHandPinky1
								{
									OFFSET 10.518692 -0.960396 -5.730441
									CHANNELS 3 Xrotation Yrotation Zrotation
									JOINT LeftHandPinky2
									{
										OFFSET 2.861649 0.000000 0.000000
										CHANNELS 3 Xrotation Yrotation Zrotation
										JOINT LeftHandPinky3
										{
											OFFSET 2.863380 0.000000 0.000000
											CHANNELS 3 Xrotation Yrotation Zrotation
											End Site
											{
												OFFSET -0.843597 2.711159 0.369971
											}
										}
									}
								}
							}
							JOINT LSleeve
							{
								OFFSET 6.676277 -0.344902 -1.011730
								CHANNELS 3 Xrotation Yrotation Zrotation
								End Site
								{
									OFFSET 0.000000 14.885353 0.000000
								}
							}
						}
					}
				}
				JOINT RightShoulder
				{
					OFFSET -6.197800 13.665199 -4.064700
					CHANNELS 3 Xrotation Yrotation Zrotation
					JOINT RightArm
					{
						OFFSET -7.778100 -0.187103 -1.709300
						CHANNELS 3 Xrotation Yrotation Zrotation
						JOINT RightForeArm
						{
							OFFSET -22.049376 0.000000 0.000000
							CHANNELS 3 Xrotation Yrotation Zrotation
							JOINT RightHand
							{
								OFFSET -23.009392 0.000000 0.000000
								CHANNELS 3 Xrotation Yrotation Zrotation
								JOINT RightHandThumb1
								{
									OFFSET -3.507191 -2.063065 3.133727
									CHANNELS 3 Xrotation Yrotation Zrotation
									JOINT RightHandThumb2
									{
										OFFSET -3.101337 -1.790558 1.790558
										CHANNELS 3 Xrotation Yrotation Zrotation
										JOINT RightHandThumb3
										{
											OFFSET -3.058640 -1.765907 1.765906
											CHANNELS 3 Xrotation Yrotation Zrotation
											End Site
											{
												OFFSET 0.415260 3.926476 -0.049563
											}
										}
									}
								}
								JOINT RightHandIndex1
								{
									OFFSET -11.334419 -0.901459 3.706815
									CHANNELS 3 Xrotation Yrotation Zrotation
									JOINT RightHandIndex2
									{
										OFFSET -3.283112 0.000000 0.000000
										CHANNELS 3 Xrotation Yrotation Zrotation
										JOINT RightHandIndex3
										{
											OFFSET -3.323853 0.000000 0.000000
											CHANNELS 3 Xrotation Yrotation Zrotation
											End Site
											{
												OFFSET 1.135597 3.097809 0.402452
											}
										}
									}
								}
								JOINT RightHandMiddle1
								{
									OFFSET -11.335861 0.000000 0.000000
									CHANNELS 3 Xrotation Yrotation Zrotation
									JOINT RightHandMiddle2
									{
										OFFSET -3.410492 0.000000 0.000000
										CHANNELS 3 Xrotation Yrotation Zrotation
										JOINT RightHandMiddle3
										{
											OFFSET -3.312172 0.000000 0.000000
											CHANNELS 3 Xrotation Yrotation Zrotation
											End Site
											{
												OFFSET 1.150200 3.080154 0.400270
											}
										}
									}
								}
								JOINT RightHandRing1
								{
									OFFSET -11.514786 -0.013176 -3.003090
									CHANNELS 3 Xrotation Yrotation Zrotation
									JOINT RightHandRing2
									{
										OFFSET -3.053307 0.000000 0.000000
										CHANNELS 3 Xrotation Yrotation Zrotation
										JOINT RightHandRing3
										{
											OFFSET -3.295807 0.000000 0.000000
											CHANNELS 3 Xrotation Yrotation Zrotation
											End Site
											{
												OFFSET 1.281006 3.013344 0.375733
											}
										}
									}
								}
								JOINT RightHandPinky1
								{
									OFFSET -10.518692 -0.960396 -5.730441
									CHANNELS 3 Xrotation Yrotation Zrotation
									JOINT RightHandPinky2
									{
										OFFSET -2.861649 0.000000 0.000000
										CHANNELS 3 Xrotation Yrotation Zrotation
										JOINT RightHandPinky3
										{
											OFFSET -2.863380 0.000000 0.000000
											CHANNELS 3 Xrotation Yrotation Zrotation
											End Site
											{
												OFFSET 0.843597 2.711159 0.369971
											}
										}
									}
								}
							}
							JOINT RSleeve
							{
								OFFSET -6.676277 -0.344902 -1.011730
								CHANNELS 3 Xrotation Yrotation Zrotation
								End Site
								{
									OFFSET 0.000000 14.885353 0.000000
								}
							}
						}
					}
				}
				JOINT Backpack
				{
					OFFSET 0.000000 -2.471497 36.677502
					CHANNELS 3 Xrotation Yrotation Zrotation
					End Site
					{
						OFFSET 0.000000 20.427315 0.000000
					}
				}
				JOINT Hood
				{
					OFFSET 0.000000 18.754097 -10.431000
					CHANNELS 3 Xrotation Yrotation Zrotation
					JOINT Hood1
					{
						OFFSET 0.000000 -5.011002 -7.685901
						CHANNELS 3 Xrotation Yrotation Zrotation
						End Site
						{
							OFFSET 0.000000 9.175140 0.000000
						}
					}
				}
				JOINT LHoodieString
				{
					OFFSET 5.250500 16.397697 3.089900
					CHANNELS 3 Xrotation Yrotation Zrotation
					JOINT LHoodieString1
					{
						OFFSET 0.257700 -6.364304 3.694600
						CHANNELS 3 Xrotation Yrotation Zrotation
						JOINT LHoodieString2
						{
							OFFSET 0.000000 -9.643799 2.679100
							CHANNELS 3 Xrotation Yrotation Zrotation
							End Site
							{
								OFFSET 0.000000 10.009018 0.000000
							}
						}
					}
				}
				JOINT RHoodieString
				{
					OFFSET -5.250500 16.397697 3.089900
					CHANNELS 3 Xrotation Yrotation Zrotation
					JOINT RHoodieString1
					{
						OFFSET -0.257700 -6.364304 3.694600
						CHANNELS 3 Xrotation Yrotation Zrotation
						JOINT RHoodieString2
						{
							OFFSET 0.000000 -9.643799 2.679100
							CHANNELS 3 Xrotation Yrotation Zrotation
							End Site
							{
								OFFSET 0.000000 10.009018 0.000000
							}
						}
					}
				}
			}
			JOINT LBackpack_Strap
			{
				OFFSET 15.223200 -7.719803 -6.610900
				CHANNELS 3 Xrotation Yrotation Zrotation
				End Site
				{
					OFFSET 0.000000 16.040596 0.000000
				}
			}
			JOINT RBackpack_Strap
			{
				OFFSET -15.223000 -7.719803 -6.610900
				CHANNELS 3 Xrotation Yrotation Zrotation
				End Site
				{
					OFFSET 0.000000 16.040596 0.000000
				}
			}
		}
	}
	JOINT BoyFacialAnim_Joint
	{
		OFFSET 1.000000 -82.208099 -1.550900
		CHANNELS 3 Xrotation Yrotation Zrotation
		End Site
		{
			OFFSET 0.000000 30.012791 0.000000
		}
	}
}
MOTION
Frames: 4
Frame Time: 0.033333
0.256495 80.502655 0.517866 -4.092570 -16.006309 -0.795361 0.000000 -0.000001 -0.000000 -5.288608 7.279121 4.212391 25.360528 9.645355 0.839892 -14.279254 9.564895 -6.860098 -0.000000 -0.000001 -0.000000 -0.000000 -0.000001 0.000000 -0.000002 0.000000 -0.000001 -10.257617 -9.640041 -16.092549 15.777244 10.243509 0.776804 -5.387451 7.732606 11.791345 0.000000 -0.000001 0.000000 0.000000 -0.000001 0.000000 -0.000000 0.000001 -0.000000 -0.946919 -1.783519 -0.347704 0.068083 -3.565427 1.437415 0.091822 -3.472525 1.607271 2.393928 1.612061 2.116542 -9.150568 9.912190 2.051553 0.000001 0.000001 0.000000 0.000001 0.000001 0.000000 0.000001 0.000001 0.000000 1.059179 0.905996 -8.653658 21.069942 -36.412592 -49.633755 0.007047 -92.562806 0.006988 -9.119547 11.150465 26.797200 -19.176555 -11.289926 -19.553254 5.240239 24.564528 1.913837 -0.000001 0.000002 -0.000000 2.529686 5.335725 -50.706641 0.553746 2.709996 -23.092952 -0.000001 0.000001 -0.000003 2.934008 5.736772 -46.706415 0.748378 3.126784 -26.914321 0.000000 0.000002 -0.000003 3.337973 6.354104 -41.816269 1.004207 3.585646 -31.282010 0.000002 -0.000001 0.000001 4.437273 8.550494 -34.457942 1.185554 -0.216229 -34.297122 0.000001 0.000001 0.000002 0.000001 0.000000 0.000002 -0.379701 -9.739541 11.462552 16.596998 47.857681 52.059920 -0.000070 73.704346 0.000067 -19.256388 20.594610 5.933575 -1.849265 -3.581782 -6.586143 4.645062 -8.656780 -0.231324 0.000000 -0.000000 0.000001 -1.639633 -1.092627 44.022157 1.044947 -3.671099 31.767746 0.000000 0.000001 0.000000 0.524454 -3.256782 42.021725 1.308959 -4.065691 35.679334 0.000000 0.000001 0.000002 2.888107 -6.062514 38.335898 1.750401 -4.617265 41.505916 -0.000001 0.000000 -0.000003 4.517893 -8.522877 35.443491 2.151801 -5.033029 46.275017 0.000001 -0.000000 -0.000002 -0.000001 -0.000001 -0.000000 -0.000000 0.000001 0.000000 -0.000000 0.000001 0.000000 -0.000000 0.000001 0.000000 -0.000000 0.000001 0.000000 -0.000000 0.000001 0.000000 -0.000000 0.000001 -0.000000 -0.000000 0.000001 0.000000 -0.000000 0.000001 0.000000 -0.000000 0.000001 -0.000000 -0.000000 -0.000001 0.000000 -0.000000 -0.000001 0.000000 0.000000 -0.000001 -0.000000 
0.548579 80.385300 0.580179 -5.199315 -15.357404 -0.846722 0.000000 0.000002 0.000000 -4.545066 7.506900 3.920222 26.032658 9.649404 0.812830 -14.747681 8.715157 -6.693062 -0.000000 0.000000 -0.000000 -0.000000 0.000000 -0.000000 -0.000001 -0.000000 -0.000000 -9.428074 -9.995420 -16.799006 16.394665 10.237851 0.776798 -5.879505 7.734440 12.067061 -0.000000 -0.000000 -0.000000 -0.000000 -0.000000 -0.000000 0.000000 0.000001 0.000000 -0.704883 -1.615487 -0.792051 0.553318 -3.332768 0.686764 0.571190 -3.273710 0.849077 3.163471 1.455582 1.645121 -7.420401 8.600739 2.010742 -0.000001 0.000000 0.000000 -0.000001 0.000000 0.000000 -0.000001 0.000000 0.000000 1.073319 0.834872 -8.634399 20.728168 -35.941507 -49.313696 -0.112578 -93.092651 -0.112168 -8.670260 13.118776 25.290372 -19.176552 -11.289923 -19.553256 5.240235 24.564533 1.913830 0.000002 0.000002 -0.000001 2.529689 5.335725 -50.706638 0.553745 2.709993 -23.092950 -0.000002 -0.000001 -0.000002 2.934009 5.736773 -46.706415 0.748378 3.126789 -26.914321 0.000002 0.000001 0.000000 3.337975 6.354102 -41.816266 1.004207 3.585650 -31.282003 -0.000000 -0.000001 0.000001 4.437275 8.550494 -34.457946 1.185559 -0.216226 -34.297122 -0.000000 0.000003 0.000000 -0.000000 0.000000 -0.000000 -0.374589 -9.710056 11.466809 15.315787 47.204301 54.511026 0.000028 73.201671 -0.000042 -19.541748 20.697510 6.181714 -1.849266 -3.581784 -6.586141 4.645061 -8.656782 -0.231321 -0.000000 0.000000 0.000000 -1.639635 -1.092628 44.022154 1.044946 -3.671102 31.767746 -0.000000 0.000000 0.000004 0.524454 -3.256785 42.021725 1.308958 -4.065688 35.679330 -0.000000 0.000000 0.000002 2.888106 -6.062516 38.335895 1.750401 -4.617266 41.505922 -0.000000 0.000000 -0.000001 4.517893 -8.522880 35.443494 2.151801 -5.033028 46.275013 0.000000 -0.000000 0.000002 -0.000003 -0.000001 0.000000 -0.000000 -0.000001 -0.000000 -0.000000 -0.000001 -0.000000 -0.000000 -0.000001 -0.000000 -0.000000 -0.000001 -0.000000 -0.000000 -0.000001 -0.000000 0.000000 0.000001 -0.000000 -0.000000 -0.000001 -0.000000 -0.000000 -0.000001 -0.000000 0.000000 0.000001 -0.000000 -0.000000 0.000001 -0.000000 -0.000000 0.000001 -0.000000 0.000000 0.000002 0.000000 
0.774645 80.341904 0.701886 -6.155039 -14.502898 -0.806923 0.000000 0.000000 0.000000 -3.641979 7.567121 3.596238 26.169291 9.646287 0.780972 -14.959832 7.860920 -6.525071 0.000000 0.000000 0.000000 0.000000 0.000000 -0.000000 0.000000 -0.000000 -0.000000 -8.292081 -10.435542 -17.400001 16.422092 10.231666 0.766674 -6.177118 7.457186 12.345996 -0.000000 0.000001 0.000000 -0.000000 0.000001 0.000000 -0.000001 0.000002 0.000001 -0.574587 -1.381465 -1.143908 0.838923 -2.958010 0.001033 0.851810 -2.931516 0.150494 3.812966 1.262530 1.138169 -4.775895 7.219477 1.575421 0.000000 0.000000 0.000000 0.000000 0.000000 0.000000 0.000000 0.000000 0.000000 1.070669 0.961282 -9.188522 20.736536 -35.636894 -49.087846 -0.011931 -93.438880 -0.011942 -7.806227 15.143445 23.598111 -19.176550 -11.289924 -19.553269 5.240237 24.564526 1.913836 -0.000002 0.000003 0.000000 2.529690 5.335724 -50.706641 0.553746 2.709996 -23.092948 0.000000 0.000001 0.000000 2.934012 5.736769 -46.706415 0.748380 3.126785 -26.914321 0.000002 -0.000001 -0.000002 3.337972 6.354097 -41.816272 1.004208 3.585652 -31.282010 0.000000 -0.000003 0.000001 4.437273 8.550488 -34.457949 1.185553 -0.216235 -34.297122 -0.000002 -0.000000 -0.000000 -0.000002 0.000000 0.000002 -0.374536 -9.709185 11.450156 15.137525 46.193358 56.041931 -0.000003 73.001909 -0.000006 -19.966446 20.815755 6.416599 -1.849265 -3.581784 -6.586141 4.645061 -8.656781 -0.231321 -0.000000 0.000001 -0.000000 -1.639634 -1.092628 44.022161 1.044948 -3.671100 31.767749 -0.000000 0.000001 0.000002 0.524453 -3.256785 42.021725 1.308960 -4.065691 35.679334 -0.000000 0.000001 0.000002 2.888107 -6.062515 38.335898 1.750403 -4.617266 41.505919 -0.000000 -0.000000 0.000004 4.517893 -8.522880 35.443494 2.151800 -5.033029 46.275017 0.000000 -0.000001 -0.000002 0.000000 -0.000001 -0.000001 0.000000 -0.000001 -0.000000 0.000000 -0.000001 -0.000000 0.000000 -0.000001 -0.000000 0.000000 -0.000001 -0.000000 0.000000 -0.000001 -0.000000 0.000000 -0.000003 -0.000000 0.000000 -0.000001 -0.000000 0.000000 -0.000001 -0.000000 0.000000 -0.000003 -0.000000 0.000000 -0.000001 -0.000000 0.000000 -0.000001 -0.000000 0.000000 0.000000 0.000000 
0.941195 80.369713 0.824847 -6.755078 -13.540225 -0.631749 -0.000000 0.000000 -0.000000 -2.871055 7.429551 3.234629 25.842987 9.635329 0.749376 -14.893571 7.085181 -6.350639 0.000000 0.000000 -0.000000 0.000000 0.000000 0.000000 0.000003 0.000000 -0.000000 -7.200969 -10.861051 -17.863199 16.014570 10.238640 0.748995 -6.277818 6.941342 12.517042 -0.000000 0.000000 0.000000 -0.000000 0.000000 0.000000 -0.000000 -0.000001 -0.000000 -0.572404 -1.112470 -1.437970 0.886809 -2.495615 -0.605192 0.894763 -2.500366 -0.473355 4.281182 1.084870 0.557508 -2.147889 5.855540 1.013122 -0.000000 -0.000001 -0.000000 -0.000000 -0.000001 -0.000000 -0.000000 -0.000001 -0.000000 1.052367 1.293510 -10.241615 21.257255 -35.321169 -48.818640 -0.007400 -93.893846 -0.007418 -6.640236 17.087301 22.099419 -19.176552 -11.289923 -19.553259 5.240236 24.564526 1.913836 -0.000002 -0.000002 0.000000 2.529687 5.335725 -50.706641 0.553747 2.709991 -23.092948 -0.000001 0.000004 -0.000003 2.934009 5.736772 -46.706418 0.748378 3.126788 -26.914323 -0.000000 0.000000 0.000000 3.337973 6.354104 -41.816272 1.004207 3.585650 -31.282003 0.000002 0.000001 -0.000004 4.437272 8.550490 -34.457949 1.185556 -0.216230 -34.297122 0.000001 -0.000001 -0.000000 0.000000 -0.000001 -0.000001 -0.354963 -9.617421 11.446888 15.969030 45.086758 56.491470 0.000031 73.189937 -0.000021 -20.505227 20.946332 6.617856 -1.849266 -3.581784 -6.586139 4.645061 -8.656779 -0.231322 -0.000000 -0.000000 0.000001 -1.639633 -1.092629 44.022157 1.044946 -3.671102 31.767746 -0.000000 0.000001 0.000004 0.524453 -3.256783 42.021725 1.308958 -4.065689 35.679334 -0.000000 0.000000 -0.000002 2.888106 -6.062515 38.335895 1.750402 -4.617266 41.505922 -0.000001 -0.000000 0.000002 4.517892 -8.522878 35.443491 2.151799 -5.033029 46.275010 -0.000000 0.000000 -0.000001 0.000001 -0.000000 0.000000 -0.000001 -0.000001 -0.000000 -0.000001 -0.000001 -0.000000 -0.000001 -0.000001 -0.000000 -0.000001 -0.000001 -0.000000 -0.000001 -0.000001 -0.000000 -0.000000 0.000001 -0.000000 -0.000001 -0.000001 -0.000000 -0.000001 -0.000001 -0.000000 -0.000000 0.000001 -0.000000 0.000000 0.000001 -0.000000 0.000000 0.000001 -0.000000 -0.000000 0.000000 -0.000000 
